<?xml version="1.0" encoding="UTF-8" standalone="no"?>
<!-- Created with Inkscape (http://www.inkscape.org/) -->

<!-- <svg width="25.504953mm" height="2.8575001mm" viewBox="0 0 25.504953 2.8575001" version="1.1" id="svg5" xmlns="http://www.w3.org/2000/svg" xmlnsSvg="http://www.w3.org/2000/svg"> -->
<svg viewBox="0 0 25.4 2.9" version="1.1" id="svg5" xmlns="http://www.w3.org/2000/svg" xmlnsSvg="http://www.w3.org/2000/svg">
  <defs id="defs2" />
  <g id="layer1" transform="translate(-68.726779,-122.43525)">
    <g aria-label="桜エンジニアリング" id="text173" style="font-weight:500;font-size:3.175px;font-family:'Rounded Mplus 1c';-inkscape-font-specification:'Rounded Mplus 1c, Medium';stroke-width:0.264583">
      <path d="m 70.094535,123.3941 q -0.0635,0.0222 -0.123825,-0.0127 -0.06032,-0.0349 -0.07937,-0.0984 -0.08572,-0.28893 -0.17145,-0.51435 -0.02223,-0.0603 0.0032,-0.11748 0.0254,-0.0603 0.0889,-0.0825 0.06668,-0.0222 0.130175,0.006 0.0635,0.0286 0.08573,0.0921 0.104775,0.27305 0.1778,0.51752 0.01905,0.0667 -0.0127,0.127 -0.03175,0.0603 -0.09843,0.0825 z m 0.733425,-0.15557 q -0.03175,0.0603 -0.09525,0.0762 -0.0635,0.0159 -0.123825,-0.0159 -0.06033,-0.0349 -0.0762,-0.0984 -0.08255,-0.30163 -0.168275,-0.54293 -0.02223,-0.0635 0.0063,-0.12065 0.03175,-0.0572 0.09207,-0.073 0.06668,-0.0191 0.127,0.0127 0.0635,0.0286 0.08573,0.0921 0.0889,0.24448 0.17145,0.5461 0.01588,0.0635 -0.01905,0.12383 z m 0.47625,0.22542 q -0.03175,0.0635 -0.09842,0.0921 -0.06668,0.0254 -0.13335,0 -0.06032,-0.0222 -0.08572,-0.0826 -0.02223,-0.0603 0.0063,-0.11748 0.1524,-0.30797 0.301625,-0.74612 0.02222,-0.0635 0.07937,-0.0953 0.06033,-0.0349 0.127,-0.019 0.0635,0.0159 0.09525,0.0762 0.03493,0.0571 0.0127,0.11747 -0.14605,0.44768 -0.3048,0.7747 z m 0.2286,0.32068 q 0.06033,0 0.1016,0.0413 0.04127,0.0413 0.04127,0.1016 0,0.0603 -0.04127,0.1016 -0.04127,0.0413 -0.1016,0.0413 h -0.130175 q -0.02858,0 -0.0381,0.0254 -0.123825,0.30162 -0.339725,0.5334 -0.01905,0.019 0.0063,0.0317 0.1905,0.0984 0.4953,0.28892 0.05397,0.0349 0.06668,0.0953 0.0127,0.0635 -0.0254,0.11748 -0.0381,0.054 -0.1016,0.0635 -0.0635,0.0127 -0.117475,-0.0222 -0.301625,-0.19685 -0.5588,-0.33337 -0.02223,-0.0127 -0.0508,0.003 -0.37465,0.25718 -0.95885,0.3683 -0.0635,0.0127 -0.12065,-0.0222 -0.05397,-0.0349 -0.06985,-0.0952 -0.01587,-0.0572 0.01588,-0.10795 0.03493,-0.0476 0.09525,-0.0572 0.422275,-0.0699 0.7239,-0.23813 0.0063,-0.006 0.0032,-0.0127 0,-0.01 -0.0063,-0.0127 -0.1651,-0.0698 -0.384175,-0.1397 -0.01905,-0.003 -0.03175,0.01 -0.04127,0.0476 -0.104775,0.0571 -0.06032,0.006 -0.111125,-0.0317 l -0.0063,-0.006 q -0.0508,-0.0381 -0.05715,-0.1016 -0.0063,-0.0635 0.03175,-0.1143 0.1016,-0.13335 0.193675,-0.2794 0.0127,-0.019 -0.0127,-0.019 H 69.82157 q -0.02857,0 -0.02857,0.0254 0,0.0889 -0.07303,0.14287 -0.04445,0.0317 -0.09525,0.0159 -0.0508,-0.0159 -0.06985,-0.0667 -0.05715,-0.15875 -0.1143,-0.3048 -0.0063,-0.003 -0.0095,0 v 1.24778 q 0,0.0667 -0.0508,0.1143 -0.04763,0.0476 -0.1143,0.0476 -0.06668,0 -0.1143,-0.0476 -0.04762,-0.0476 -0.04762,-0.1143 v -0.96838 q -0.0032,-0.003 -0.0064,-0.003 -0.06667,0.18732 -0.136525,0.33337 -0.0254,0.054 -0.08572,0.0572 -0.06033,0.003 -0.09525,-0.0476 l -0.0032,-0.01 q -0.09525,-0.14922 -0.0095,-0.31115 0.22225,-0.42862 0.327025,-0.90805 0.0063,-0.0286 -0.01905,-0.0286 h -0.180975 q -0.06033,0 -0.1016,-0.0413 -0.04127,-0.0413 -0.04127,-0.1016 0,-0.0603 0.04127,-0.1016 0.04127,-0.0413 0.1016,-0.0413 h 0.18415 q 0.0254,0 0.0254,-0.0286 v -0.33337 q 0,-0.0667 0.04762,-0.1143 0.04762,-0.0476 0.1143,-0.0476 0.06667,0 0.1143,0.0476 0.0508,0.0476 0.0508,0.1143 v 0.33337 q 0,0.0286 0.0254,0.0286 h 0.127 q 0.06033,0 0.1016,0.0413 0.04127,0.0413 0.04127,0.1016 0,0.0603 -0.04127,0.1016 -0.04127,0.0413 -0.1016,0.0413 h -0.10795 q -0.02858,0 -0.01587,0.0222 0.161925,0.37465 0.225425,0.52388 0.0095,0.0222 0.03493,0.01 0.03175,-0.0159 0.06667,-0.0159 h 0.320675 q 0.0254,0 0.0381,-0.0222 l 0.104775,-0.20955 q 0.03175,-0.0635 0.09207,-0.0953 0.0635,-0.0318 0.13335,-0.019 0.0635,0.0159 0.09208,0.0698 0.02858,0.054 0.0063,0.1143 -0.0381,0.0953 -0.06033,0.1397 -0.0127,0.0222 0.01588,0.0222 z m -0.508,0.30797 q 0.0032,-0.006 -0.0032,-0.0127 -0.0032,-0.01 -0.0127,-0.01 h -0.6318 q -0.0254,0 -0.04127,0.0222 -0.07303,0.12065 -0.130175,0.2032 -0.01587,0.0254 0.0095,0.0318 0.244475,0.0762 0.47625,0.17463 0.01905,0.006 0.04127,-0.01 0.1778,-0.17462 0.2921,-0.40005 z" id="path168" />
      <path d="m 72.16604,124.96467 q -0.05644,0 -0.09595,-0.0395 -0.03951,-0.0395 -0.03951,-0.0931 0,-0.0564 0.03951,-0.096 0.03951,-0.0395 0.09595,-0.0395 h 0.784577 q 0.0254,0 0.0254,-0.0254 v -1.36313 q 0,-0.0226 -0.0254,-0.0226 h -0.69991 q -0.05645,0 -0.09596,-0.0395 -0.03951,-0.0395 -0.03951,-0.096 0,-0.0536 0.03951,-0.0931 0.03951,-0.0395 0.09596,-0.0395 h 1.761065 q 0.05645,0 0.09596,0.0395 0.03951,0.0395 0.03951,0.0931 0,0.0564 -0.03951,0.096 -0.03951,0.0395 -0.09596,0.0395 h -0.69991 q -0.0254,0 -0.0254,0.0226 v 1.36313 q 0,0.0254 0.0254,0.0254 h 0.784577 q 0.05644,0 0.09595,0.0395 0.03951,0.0395 0.03951,0.096 0,0.0536 -0.03951,0.0931 -0.03951,0.0395 -0.09595,0.0395 z" style="font-size:2.82222px" id="path170" />
      <path d="m 75.081388,123.25158 q -0.05644,-0.0282 -0.0762,-0.0847 -0.01693,-0.0593 0.01129,-0.11571 0.02822,-0.0536 0.09031,-0.0734 0.06209,-0.0198 0.118533,0.008 0.327378,0.16652 0.601133,0.32456 0.05644,0.031 0.07056,0.0903 0.01693,0.0593 -0.01411,0.11571 -0.03104,0.0564 -0.09031,0.0734 -0.05927,0.0141 -0.115711,-0.0169 -0.273756,-0.15805 -0.595489,-0.32174 z m 1.947332,-0.0367 q 0.05927,0.0141 0.09031,0.0649 0.03387,0.048 0.02258,0.10724 -0.327378,1.4478 -1.941688,1.64818 -0.06209,0.008 -0.110066,-0.0282 -0.04798,-0.0395 -0.05644,-0.1016 -0.0085,-0.0593 0.0254,-0.10442 0.03669,-0.048 0.09596,-0.0564 0.714022,-0.096 1.128888,-0.44309 0.414866,-0.34713 0.572911,-0.97931 0.01411,-0.0564 0.06491,-0.0875 0.0508,-0.031 0.107244,-0.0198 z" style="font-size:2.82222px" id="path172" />
      <path d="m 79.817068,123.29109 q 0.05644,0.0113 0.09031,0.0621 0.03387,0.048 0.02258,0.10442 -0.166511,0.7874 -0.62371,1.17687 -0.4572,0.38664 -1.320799,0.48542 -0.05927,0.006 -0.107245,-0.031 -0.04798,-0.0367 -0.05644,-0.096 -0.0085,-0.0564 0.0254,-0.1016 0.03669,-0.048 0.09313,-0.0536 0.778933,-0.0903 1.168399,-0.41204 0.389467,-0.32456 0.539044,-1.016 0.01411,-0.0593 0.06209,-0.0931 0.04798,-0.0367 0.107244,-0.0254 z m -0.431799,-0.5588 q 0.04516,-0.0226 0.09031,-0.008 0.04798,0.0141 0.07056,0.0564 0.09878,0.1778 0.115711,0.20885 0.02258,0.0423 0.0085,0.0931 -0.01411,0.048 -0.05927,0.0677 -0.04516,0.0198 -0.09313,0.003 -0.04515,-0.0169 -0.06773,-0.0593 -0.09596,-0.17498 -0.112889,-0.20602 -0.02258,-0.0423 -0.0085,-0.0875 0.01411,-0.0452 0.05644,-0.0677 z m 0.403577,-0.0423 q 0.04516,-0.0226 0.09313,-0.008 0.04798,0.0141 0.07338,0.0593 0.104422,0.18909 0.118533,0.21449 0.02258,0.0452 0.0056,0.0931 -0.01411,0.0452 -0.05927,0.0677 -0.04516,0.0198 -0.09313,0.006 -0.04798,-0.0169 -0.07056,-0.0621 -0.03669,-0.0705 -0.115712,-0.21166 -0.02258,-0.0423 -0.01129,-0.0903 0.01411,-0.048 0.05927,-0.0677 z m -1.964265,1.19098 q -0.05644,-0.0113 -0.09031,-0.0564 -0.03387,-0.048 -0.02258,-0.10442 0.01129,-0.0564 0.05927,-0.0903 0.0508,-0.0339 0.107244,-0.0226 0.400755,0.0734 0.649111,0.12418 0.05644,0.0113 0.08749,0.0593 0.03104,0.048 0.01976,0.10442 -0.01129,0.0564 -0.05927,0.0903 -0.04798,0.031 -0.104423,0.0198 -0.245533,-0.0508 -0.646288,-0.12418 z m 0.124178,-0.69145 q -0.05644,-0.0113 -0.09031,-0.0564 -0.03104,-0.048 -0.01976,-0.10442 0.01129,-0.0565 0.05927,-0.0903 0.04798,-0.0367 0.104422,-0.0254 0.211666,0.0367 0.682977,0.127 0.05645,0.0113 0.09031,0.0593 0.03387,0.048 0.02258,0.10443 -0.01129,0.0564 -0.06209,0.0903 -0.0508,0.031 -0.107244,0.0198 -0.364067,-0.0705 -0.680155,-0.12418 z" style="font-size:2.82222px" id="path174" />
      <path d="m 80.810484,123.01734 h 1.574799 q 0.05927,0 0.1016,0.0423 0.04233,0.0423 0.04233,0.1016 0,0.0593 -0.04233,0.10442 -0.04233,0.0423 -0.1016,0.0423 h -1.574799 q -0.05927,0 -0.1016,-0.0423 -0.04233,-0.0452 -0.04233,-0.10442 0,-0.0593 0.04233,-0.1016 0.04233,-0.0423 0.1016,-0.0423 z m -0.197555,1.94733 q -0.05927,0 -0.1016,-0.0423 -0.04233,-0.0423 -0.04233,-0.1016 0,-0.0593 0.04233,-0.1016 0.04233,-0.0452 0.1016,-0.0452 h 1.969909 q 0.05927,0 0.1016,0.0452 0.04233,0.0423 0.04233,0.1016 0,0.0593 -0.04233,0.1016 -0.04233,0.0423 -0.1016,0.0423 z" style="font-size:2.82222px" id="path176" />
      <path d="m 83.471832,123.23465 q -0.05645,0 -0.09313,-0.0367 -0.03669,-0.0367 -0.03669,-0.0931 0,-0.0565 0.03669,-0.0931 0.03669,-0.0367 0.09313,-0.0367 h 1.995309 q 0.05644,0 0.09313,0.0395 0.03951,0.0367 0.03951,0.0903 0,0.14111 -0.04233,0.254 -0.180622,0.4572 -0.606777,0.73377 -0.0508,0.0339 -0.110067,0.0198 -0.05927,-0.0141 -0.09313,-0.0649 -0.03104,-0.048 -0.01976,-0.10442 0.01411,-0.0564 0.06209,-0.0875 0.364067,-0.23989 0.4826,-0.59549 0.0056,-0.0254 -0.01411,-0.0254 z m 0.64911,0.39793 q 0.0028,-0.0621 0.04516,-0.10442 0.04515,-0.0452 0.107244,-0.0452 0.06209,0 0.104422,0.0452 0.04233,0.0423 0.03951,0.10442 -0.01411,0.59267 -0.163689,0.9144 -0.146755,0.32173 -0.491066,0.508 -0.05362,0.0282 -0.112889,0.0113 -0.05644,-0.0169 -0.08749,-0.0706 -0.02822,-0.048 -0.01129,-0.1016 0.01693,-0.0564 0.06773,-0.0847 0.262466,-0.14958 0.375355,-0.41487 0.115711,-0.26529 0.127,-0.762 z" style="font-size:2.82222px" id="path178" />
      <path d="m 87.851913,122.93832 q 0.04798,-0.048 0.112889,-0.048 0.06491,0 0.110066,0.048 0.04798,0.0451 0.04798,0.11006 v 0.58985 q 0,0.68297 -0.3048,1.0414 -0.304799,0.3556 -0.976488,0.46284 -0.05927,0.008 -0.110066,-0.0282 -0.04798,-0.0339 -0.06209,-0.0931 -0.01129,-0.0564 0.01976,-0.1016 0.03387,-0.048 0.09031,-0.0593 0.572911,-0.1016 0.798689,-0.37253 0.2286,-0.27094 0.2286,-0.84103 v -0.59831 q 0,-0.0649 0.04515,-0.11006 z m -1.337732,1.20791 q -0.06209,0 -0.107245,-0.0452 -0.04516,-0.0452 -0.04516,-0.11007 v -0.94544 q 0,-0.0649 0.04516,-0.11007 0.04516,-0.0452 0.107245,-0.0452 0.06491,0 0.110066,0.048 0.04798,0.0451 0.04798,0.10724 v 0.94544 q 0,0.0621 -0.04798,0.11007 -0.04515,0.0452 -0.110066,0.0452 z" style="font-size:2.82222px" id="path180" />
      <path d="m 89.192462,123.25158 q -0.05645,-0.0282 -0.0762,-0.0847 -0.01693,-0.0593 0.01129,-0.11571 0.02822,-0.0536 0.09031,-0.0734 0.06209,-0.0198 0.118533,0.008 0.327377,0.16652 0.601133,0.32456 0.05644,0.031 0.07055,0.0903 0.01693,0.0593 -0.01411,0.11571 -0.03104,0.0564 -0.09031,0.0734 -0.05927,0.0141 -0.115711,-0.0169 -0.273755,-0.15805 -0.595488,-0.32174 z m 1.947331,-0.0367 q 0.05927,0.0141 0.09031,0.0649 0.03387,0.048 0.02258,0.10724 -0.327377,1.4478 -1.941687,1.64818 -0.06209,0.008 -0.110067,-0.0282 -0.04798,-0.0395 -0.05644,-0.1016 -0.0085,-0.0593 0.0254,-0.10442 0.03669,-0.048 0.09596,-0.0564 0.714022,-0.096 1.128888,-0.44309 0.414867,-0.34713 0.572911,-0.97931 0.01411,-0.0564 0.06491,-0.0875 0.0508,-0.031 0.107244,-0.0198 z" style="font-size:2.82222px" id="path182" />
      <path d="m 94.001519,123.05967 q -0.03669,-0.0705 -0.115711,-0.21166 -0.02258,-0.0423 -0.01129,-0.0903 0.01411,-0.048 0.05927,-0.0677 0.04516,-0.0226 0.09313,-0.008 0.04798,0.0141 0.07338,0.0593 0.07902,0.14111 0.118534,0.21449 0.02258,0.0452 0.0056,0.0931 -0.01411,0.0452 -0.05927,0.0677 -0.04515,0.0198 -0.09313,0.006 -0.04798,-0.0169 -0.07055,-0.0621 z m -2.012243,1.04705 q -0.03951,0.0423 -0.09878,0.0452 -0.05927,0.003 -0.104422,-0.0367 -0.04233,-0.0367 -0.04516,-0.0931 -0.0028,-0.0564 0.03387,-0.096 0.381,-0.42051 0.485422,-0.9652 0.01129,-0.0593 0.05644,-0.096 0.04798,-0.0395 0.110067,-0.0367 0.05927,0.006 0.09596,0.0508 0.03951,0.0423 0.03104,0.0988 -0.0028,0.0198 -0.01129,0.0649 -0.0085,0.0452 -0.01411,0.0649 -0.0056,0.0226 0.01693,0.0226 h 1.058333 q 0.0056,0 0.0085,-0.003 0.0028,-0.006 -0.0028,-0.0113 -0.0085,-0.0113 -0.01411,-0.0226 -0.09596,-0.17498 -0.112889,-0.20602 -0.02258,-0.0423 -0.0085,-0.0875 0.01411,-0.0452 0.05644,-0.0677 0.04515,-0.0226 0.09031,-0.008 0.04798,0.0141 0.07055,0.0564 0.09878,0.1778 0.115712,0.20885 0.02258,0.0423 0.0085,0.0903 -0.01411,0.048 -0.05927,0.0677 -0.0085,0.003 -0.03669,0.0113 -0.0056,0 -0.0085,0.008 0,0.006 0.0056,0.008 0.04516,0.0423 0.04516,0.11289 -0.02822,0.8636 -0.445911,1.29822 -0.414866,0.43462 -1.292577,0.5334 -0.05644,0.006 -0.1016,-0.031 -0.04516,-0.0339 -0.05362,-0.0903 -0.0085,-0.0565 0.02258,-0.0988 0.03387,-0.0423 0.08749,-0.048 0.736599,-0.0903 1.078088,-0.42051 0.341489,-0.3302 0.389466,-1.01035 0,-0.0226 -0.02258,-0.0226 H 92.46337 q -0.02258,0 -0.03387,0.0254 -0.146755,0.37253 -0.440266,0.68298 z" style="font-size:2.82222px" id="path184" />
    </g>
  </g>
</svg>
